<?xml version="1.0" standalone="no"?>
<!DOCTYPE svg PUBLIC "-//W3C//DTD SVG 20010904//EN"
 "http://www.w3.org/TR/2001/REC-SVG-20010904/DTD/svg10.dtd">
<svg version="1.0" xmlns="http://www.w3.org/2000/svg"
 width="16.000000pt" height="16.000000pt" viewBox="0 0 16.000000 16.000000"
 preserveAspectRatio="xMidYMid meet">
<metadata>
Created by potrace 1.11, written by Peter Selinger 2001-2013
</metadata>
<g transform="translate(0.000000,16.000000) scale(0.008000,-0.008000)"
fill="#000000" stroke="none">
<path d="M1028 1799 c-10 -5 -18 -17 -18 -25 0 -17 23 -44 39 -44 5 0 13 -9
16 -20 3 -11 11 -20 16 -20 5 0 2 -11 -7 -25 -10 -15 -14 -37 -12 -56 6 -40
-22 -58 -57 -35 -18 12 -25 12 -28 3 -3 -6 -6 -4 -6 7 -1 15 -6 17 -33 12 -18
-4 -43 -17 -54 -29 -24 -24 -44 -74 -25 -63 7 4 9 1 5 -8 -5 -12 -23 -15 -87
-14 -132 2 -237 -25 -324 -83 -24 -15 -42 -23 -40 -16 1 7 7 15 12 19 6 5 3 8
-6 8 -9 0 -19 -10 -23 -22 -4 -17 -8 -20 -14 -10 -6 9 -16 10 -33 3 -24 -8
-59 -41 -45 -41 4 0 1 -6 -6 -14 -9 -10 -20 -11 -36 -5 -13 5 -27 7 -32 4 -4
-3 -19 4 -32 15 -17 13 -29 16 -36 10 -9 -7 -9 -7 -2 2 16 19 12 26 -15 26
-27 0 -58 -27 -34 -29 8 -1 18 -1 23 0 5 1 4 -5 -4 -13 -14 -18 -25 -22 -15
-6 3 6 -1 10 -11 10 -15 0 -15 -2 -2 -22 16 -24 67 -37 69 -19 1 6 2 15 3 20
0 5 5 13 10 18 5 4 6 3 2 -4 -6 -11 7 -16 74 -27 8 -1 25 -7 36 -14 12 -6 25
-8 29 -4 5 4 5 1 1 -6 -4 -7 -12 -9 -18 -6 -7 4 -8 2 -4 -4 4 -6 -3 -30 -14
-52 -22 -43 -52 -135 -68 -206 -7 -29 -6 -48 3 -64 11 -21 6 -33 -46 -116 -33
-52 -59 -103 -59 -114 0 -14 11 -26 34 -35 38 -16 46 -30 39 -68 -4 -18 0 -29
10 -33 13 -5 14 -9 4 -24 -9 -15 -8 -23 7 -39 12 -14 16 -28 12 -48 -14 -64
-15 -75 -4 -97 11 -25 46 -46 76 -46 13 0 14 -2 4 -8 -24 -16 -23 -70 3 -100
14 -16 24 -21 25 -13 0 10 3 11 14 2 11 -9 17 -8 29 3 8 8 17 12 20 9 7 -6 15
25 19 71 4 36 31 56 55 40 17 -10 21 -26 38 -126 l6 -37 312 2 312 2 0 55 c0
47 -3 55 -18 54 -10 -1 -16 1 -13 4 3 3 0 12 -6 20 -16 18 -19 129 -7 207 8
45 19 72 49 111 22 28 46 51 52 52 7 1 35 3 61 5 26 3 51 7 54 11 4 3 13 0 22
-8 25 -23 78 -25 65 -3 -5 7 -1 7 12 -3 47 -35 64 -55 64 -76 0 -27 34 -54 59
-47 10 3 24 16 30 29 9 20 7 28 -9 44 -20 20 -46 28 -36 11 9 -14 -27 -7 -45
9 -10 8 -25 21 -34 28 -10 9 -13 18 -7 25 14 18 8 52 -12 72 -9 10 -15 24 -12
32 3 8 6 22 6 31 0 13 2 14 8 4 7 -10 14 -8 35 8 31 24 29 54 -7 86 -17 16
-25 38 -30 78 -4 31 -7 58 -6 61 1 4 -6 18 -16 33 -15 23 -15 25 -1 14 17 -14
41 -7 32 9 -4 5 -1 9 4 9 15 0 14 20 -3 51 -12 24 -11 29 15 65 16 21 32 47
35 56 6 18 15 22 73 33 23 5 31 4 27 -4 -4 -6 -2 -11 3 -11 6 0 11 -13 11 -28
0 -37 41 -60 62 -35 15 18 12 54 -6 65 -6 4 -17 0 -23 -9 -9 -12 -13 -13 -13
-4 0 8 -6 19 -14 25 -10 7 -13 21 -9 38 5 25 8 27 41 22 20 -3 49 -17 65 -30
34 -29 38 -29 67 -6 31 25 20 79 -17 88 -31 8 -59 -7 -56 -31 0 -11 -4 -14
-14 -11 -8 3 -29 6 -48 6 -24 0 -34 5 -38 20 -3 11 -10 20 -17 20 -6 0 -9 -4
-5 -9 3 -5 1 -12 -4 -15 -4 -3 -8 2 -7 12 0 9 -3 19 -9 20 -31 11 -43 25 -52
60 -6 23 -7 46 -2 55 19 34 -16 65 -52 46 -26 -13 -21 -51 7 -63 12 -5 27 -26
34 -45 7 -20 15 -42 18 -50 4 -9 1 -12 -6 -7 -17 10 -42 -52 -32 -79 4 -11 12
-20 18 -20 6 0 13 -3 16 -7 3 -5 3 -6 -1 -3 -3 3 -18 -14 -32 -37 -14 -24 -30
-49 -37 -55 -7 -7 -14 -17 -16 -23 -2 -6 -21 -11 -42 -12 -31 -1 -42 -7 -55
-30 -9 -15 -20 -28 -26 -28 -5 1 -20 23 -33 49 -30 66 -95 137 -165 182 -32
21 -63 39 -69 41 -7 3 -5 14 5 34 10 20 12 35 6 46 -8 14 -3 20 19 32 21 11
32 12 40 4 20 -20 72 -11 98 17 25 28 31 41 13 29 -6 -3 -3 5 6 20 10 14 23
26 30 26 7 0 25 6 40 14 20 11 35 12 54 5 17 -7 27 -7 29 0 2 6 8 9 13 5 5 -3
9 9 9 25 0 18 -5 31 -12 32 -7 0 -21 2 -30 4 -10 2 -22 -9 -32 -28 -9 -18 -16
-29 -16 -25 0 4 -20 -1 -44 -12 -44 -18 -45 -18 -62 1 -10 11 -30 19 -49 19
-44 0 -74 33 -56 62 10 16 10 19 -1 13 -10 -6 -10 -5 -1 5 9 10 9 16 -2 26
-16 16 -24 17 -47 3z m163 -156 c13 -16 12 -17 -3 -4 -17 13 -22 21 -14 21 2
0 10 -8 17 -17z m-87 -1 c3 -5 -1 -9 -9 -9 -8 0 -12 4 -9 9 3 4 7 8 9 8 2 0 6
-4 9 -8z m359 -37 c-3 -9 -8 -14 -10 -11 -3 3 -2 9 2 15 9 16 15 13 8 -4z
m-362 -18 c-10 -9 -11 -8 -5 6 3 10 9 15 12 12 3 -3 0 -11 -7 -18z m435 -189
c3 -4 -1 -5 -10 -4 -8 1 -18 5 -22 8 -3 4 1 5 10 4 8 -1 18 -5 22 -8z m-1166
-43 c0 -2 -9 -3 -19 -2 -11 0 -18 5 -15 9 4 6 34 0 34 -7z m-210 -29 c0 -2 -8
-10 -17 -17 -16 -13 -17 -12 -4 4 13 16 21 21 21 13z m1245 -125 c3 -5 2 -12
-3 -15 -5 -3 -9 1 -9 9 0 17 3 19 12 6z m-101 -56 c-4 -8 -1 -15 6 -15 6 0 9
-4 6 -8 -7 -12 39 -36 52 -28 14 9 19 -1 27 -54 10 -65 10 -64 18 -77 5 -7 -1
-16 -13 -23 -11 -6 -18 -15 -15 -21 4 -5 1 -8 -7 -7 -14 3 -13 -42 1 -52 30
-21 11 -60 -36 -74 -26 -8 -38 -36 -21 -48 10 -5 8 -8 -5 -8 -10 0 -15 -4 -12
-10 6 -9 -8 -14 -27 -11 -5 0 -8 -2 -8 -6 0 -5 -17 -8 -38 -8 l-38 0 27 40
c45 67 79 182 79 267 0 40 -4 90 -9 110 -8 34 -6 39 16 47 1 1 0 -6 -3 -14z
m246 -525 c0 -5 -5 -10 -11 -10 -5 0 -7 5 -4 10 3 6 8 10 11 10 2 0 4 -4 4
-10z m-10 -40 c-8 -5 -19 -10 -25 -10 -5 0 -3 5 5 10 8 5 20 10 25 10 6 0 3
-5 -5 -10z m-1138 -247 c-6 -2 -10 -8 -8 -12 3 -4 -1 -8 -9 -8 -11 0 -12 4 -4
14 6 7 17 13 23 12 7 0 6 -2 -2 -6z m-11 -50 c13 -16 12 -17 -3 -4 -17 13 -22
21 -14 21 2 0 10 -8 17 -17z m-31 3 c0 -2 -8 -10 -17 -17 -16 -13 -17 -12 -4
4 13 16 21 21 21 13z m4 -52 c3 -8 2 -12 -4 -9 -6 3 -10 10 -10 16 0 14 7 11
14 -7z"/>
<path d="M459 1553 c-1 -5 -1 -11 0 -15 0 -5 -5 -7 -11 -5 -8 1 -13 -11 -14
-33 -1 -20 -6 -46 -13 -58 -8 -15 -8 -22 -1 -22 6 0 15 11 20 24 6 17 16 24
35 24 51 0 61 53 15 77 -16 9 -31 12 -31 8z m30 -46 c8 -10 7 -14 -2 -14 -8 0
-14 6 -14 14 0 7 1 13 2 13 2 0 8 -6 14 -13z"/>
</g>
</svg>
